<svg xmlns="http://www.w3.org/2000/svg" xmlns:xlink="http://www.w3.org/1999/xlink" viewBox="0 0 512 512"><defs><style>.a{clip-path:url(#b);}.b{fill:#bf2b2b;}.b,.c{fill-rule:evenodd;}.c{fill:#126caf;}</style><clipPath id="b"><rect width="512" height="512"/></clipPath></defs><g id="a" class="a"><path class="b" d="M189.161,77.626H347.192c69.818,0,126.418,56.752,126.418,126.758h0c0,70.007-56.6,126.76-126.42,126.76h0l37.927,101.411H321.9l-61.627-164.79h86.914a63.3,63.3,0,0,0,63.21-63.379h0v.006a63.3,63.3,0,0,0-63.21-63.38H212.865L189.159,77.62"/><path class="c" d="M38.419,431.361h63.092l37.838-101.753H264.913l-23.4-62.681H162.657L202.009,161.1h0l-31.6-84.669h0L38.42,431.365"/></g></svg>